<svg xmlns="http://www.w3.org/2000/svg" viewBox="0 0 1104 336" role="img" aria-labelledby="title desc">
  <title id="title">Hidden Bites question preview collage</title>
  <desc id="desc">Vector preview collage showing an evaluation card, a score badge, a score graph, score controls, and a Seoul dot map.</desc>
  <defs>
    <style>
      .ink{fill:#19120e}.paper{fill:#fff2d9}.paper2{fill:#fff7e8}.orange{fill:#ff5a1f}.yellow{fill:#ffc83d}.green{fill:#3fa56e}.blue{fill:#4c93d7}.pink{fill:#f77da4}.purple{fill:#b67be8}.muted{fill:#6c5c4a}.stroke{stroke:#19120e;stroke-width:2.3;stroke-linecap:round;stroke-linejoin:round}.body{font-family:Sora,Inter,Arial,sans-serif;font-weight:800}.mono{font-family:"JetBrains Mono",Menlo,monospace;font-weight:800}.display{font-family:"AirbnbCereal_W_XBd",Sora,Arial,sans-serif;font-weight:900}
    </style>
    <filter id="shadow" x="-15%" y="-18%" width="130%" height="140%" color-interpolation-filters="sRGB">
      <feDropShadow dx="0" dy="7" stdDeviation="0" flood-color="#19120e" flood-opacity=".18"/>
    </filter>
  </defs>
  <rect width="1104" height="336" fill="#ff5a1f"/>
  <path d="M0 264C164 240 293 236 460 226c167-10 356 52 644-14v124H0Z" fill="#fff2d9"/>
  <g transform="translate(24 83) rotate(-7 235 88)" filter="url(#shadow)">
    <rect class="ink" width="472" height="180" rx="19"/>
    <text class="mono yellow" x="21" y="26" font-size="9" letter-spacing="1.5">INDIVIDUAL EVALUATION</text>
    <text class="display paper" x="21" y="65" font-size="34">Mutan COEX Store</text>
    <text class="mono muted" x="21" y="86" font-size="10">rank #8 of 50 - Google baseline 4.7</text>
    <text class="display yellow" x="396" y="58" font-size="39">4.93</text>
    <text class="display yellow" x="452" y="58" font-size="19">*</text>
    <line x1="20" x2="452" y1="101" y2="101" stroke="#45362e" stroke-width="1.4" stroke-dasharray="5 5"/>
    <g transform="translate(20 118)">
      <rect fill="#271f1a" width="137" height="45" rx="10"/>
      <text class="mono orange" x="12" y="15" font-size="9">TASTE</text>
      <rect x="12" y="26" width="110" height="7" rx="4" fill="#4a3d34"/>
      <rect x="12" y="26" width="91" height="7" rx="4" class="orange"/>
    </g>
    <g transform="translate(167 118)">
      <rect fill="#271f1a" width="137" height="45" rx="10"/>
      <text class="mono green" x="12" y="15" font-size="9">SERVICE</text>
      <rect x="12" y="26" width="110" height="7" rx="4" fill="#4a3d34"/>
      <rect x="12" y="26" width="70" height="7" rx="4" class="green"/>
    </g>
    <g transform="translate(314 118)">
      <rect fill="#271f1a" width="137" height="45" rx="10"/>
      <text class="mono yellow" x="12" y="15" font-size="9">VALUE</text>
      <rect x="12" y="26" width="110" height="7" rx="4" fill="#4a3d34"/>
      <rect x="12" y="26" width="58" height="7" rx="4" class="yellow"/>
    </g>
    <g transform="translate(20 171)">
      <rect class="paper" width="432" height="25" rx="13"/>
      <text class="body ink" x="15" y="17" font-size="13">Go to Report</text>
      <text class="body ink" x="410" y="17" font-size="13">↓</text>
    </g>
  </g>
  <g transform="translate(484 78) rotate(8 153 100)" filter="url(#shadow)">
    <rect class="paper2" width="306" height="208" rx="18"/>
    <g transform="translate(16 17)">
      <rect class="ink" width="49" height="23" rx="12"/>
      <text class="body paper" x="13" y="15" font-size="8">Scatter</text>
      <rect x="58" y="0" width="63" height="23" rx="12" fill="#fff7e8" stroke="#19120e" stroke-width="2"/>
      <text class="body ink" x="70" y="15" font-size="8">Ranked list</text>
    </g>
    <text class="mono orange" x="18" y="55" font-size="9">HB RE-SCORE</text>
    <g transform="translate(31 69)">
      <line x1="0" y1="0" x2="0" y2="112" class="stroke"/>
      <line x1="0" y1="112" x2="246" y2="112" class="stroke"/>
      <line x1="0" y1="29" x2="246" y2="29" stroke="#eadfcd" stroke-width="1"/>
      <line x1="0" y1="66" x2="246" y2="66" stroke="#eadfcd" stroke-width="1"/>
      <line x1="55" y1="0" x2="55" y2="112" stroke="#eadfcd" stroke-width="1"/>
      <line x1="130" y1="0" x2="130" y2="112" stroke="#eadfcd" stroke-width="1"/>
      <circle cx="116" cy="76" r="3.1" class="ink"/><circle cx="128" cy="67" r="3.2" class="ink"/><circle cx="140" cy="82" r="3.4" class="ink"/><circle cx="153" cy="54" r="3" class="ink"/><circle cx="166" cy="48" r="3.3" class="ink"/><circle cx="174" cy="70" r="3" class="ink"/><circle cx="181" cy="40" r="3.2" class="ink"/><circle cx="191" cy="58" r="3.4" class="ink"/><circle cx="198" cy="49" r="3" class="ink"/><circle cx="207" cy="66" r="3.2" class="ink"/><circle cx="215" cy="31" r="3.4" class="ink"/><circle cx="225" cy="42" r="3.1" class="ink"/><circle cx="235" cy="54" r="3.2" class="ink"/>
      <circle cx="216" cy="38" r="6" class="orange" stroke="#19120e" stroke-width="2"/>
      <rect x="178" y="19" width="58" height="18" rx="9" class="yellow"/>
      <text class="body ink" x="185" y="31" font-size="8">Jongno Naengmyeon</text>
    </g>
  </g>
  <g transform="translate(666 194)" filter="url(#shadow)">
    <rect class="yellow" width="150" height="82" rx="17"/>
    <text class="mono orange" x="17" y="22" font-size="8">-- TOP PICK RIGHT NOW</text>
    <text class="display ink" x="17" y="45" font-size="20">Jongno</text>
    <text class="display ink" x="17" y="63" font-size="20">Naengmyeon</text>
    <text class="display orange" x="17" y="94" font-size="49">74.0</text>
  </g>
  <g transform="translate(744 72)" filter="url(#shadow)">
    <rect class="ink" width="158" height="182" rx="17"/>
    <text class="display yellow" x="18" y="37" font-size="28">Score controls</text>
    <text class="mono" x="18" y="70" font-size="8" fill="#f1b076">X-AXIS FACTOR</text>
    <g class="body" font-size="9">
      <rect x="18" y="81" width="63" height="24" rx="12" class="orange"/><text class="paper" x="40" y="96">Taste</text>
      <rect x="88" y="81" width="52" height="24" rx="12" fill="none" stroke="#fff2d9" stroke-width="2"/><text class="paper" x="105" y="96">Service</text>
      <rect x="18" y="112" width="63" height="24" rx="12" fill="none" stroke="#fff2d9" stroke-width="2"/><text class="paper" x="39" y="127">Value</text>
      <rect x="88" y="112" width="52" height="24" rx="12" fill="none" stroke="#fff2d9" stroke-width="2"/><text class="paper" x="100" y="127">Atmosphere</text>
      <rect x="18" y="143" width="63" height="24" rx="12" fill="none" stroke="#fff2d9" stroke-width="2"/><text class="paper" x="31" y="158">Accessibility</text>
      <rect x="88" y="143" width="52" height="24" rx="12" fill="none" stroke="#fff2d9" stroke-width="2"/><text class="paper" x="99" y="158">Wait/queue</text>
    </g>
  </g>
  <g transform="translate(914 90) rotate(-10 117 88)" filter="url(#shadow)">
    <rect class="paper2" width="236" height="176" rx="19"/>
    <ellipse cx="122" cy="84" rx="93" ry="63" fill="#f7dca8" stroke="#19120e" stroke-width="2.4"/>
    <path d="M27 101C72 88 111 91 158 82s69-23 105-16" fill="none" stroke="#4c93d7" stroke-width="18" stroke-linecap="round"/>
    <g stroke="#19120e" stroke-width="1.4">
      <circle cx="63" cy="73" r="6" class="orange"/><circle cx="75" cy="79" r="6" class="orange"/><circle cx="83" cy="65" r="6" class="orange"/><circle cx="94" cy="72" r="6" class="orange"/>
      <circle cx="129" cy="63" r="6" class="yellow"/><circle cx="141" cy="55" r="6" class="yellow"/><circle cx="153" cy="68" r="6" class="yellow"/><circle cx="166" cy="60" r="6" class="yellow"/>
      <circle cx="177" cy="68" r="6" class="green"/><circle cx="184" cy="55" r="6" class="green"/>
      <circle cx="177" cy="122" r="6" class="blue"/><circle cx="190" cy="116" r="6" class="blue"/><circle cx="199" cy="129" r="6" class="blue"/>
      <circle cx="104" cy="100" r="6" class="pink"/><circle cx="116" cy="96" r="6" class="pink"/>
    </g>
    <g class="body" font-size="8">
      <rect x="52" y="45" width="63" height="15" rx="8" class="orange"/><text class="paper" x="58" y="56">HONGDAE/MAPO</text>
      <rect x="119" y="85" width="42" height="15" rx="8" class="pink"/><text class="ink" x="127" y="96">ITAEWON</text>
      <rect x="151" y="43" width="66" height="15" rx="8" class="yellow"/><text class="ink" x="157" y="54">MYEONGDONG</text>
      <rect x="167" y="67" width="45" height="15" rx="8" class="green"/><text class="paper" x="178" y="78">SEONGSU</text>
      <rect x="165" y="135" width="72" height="15" rx="8" class="blue"/><text class="paper" x="176" y="146">GANGNAM</text>
    </g>
    <rect x="18" y="134" width="83" height="31" rx="7" fill="#fff2d9" opacity=".9"/>
    <circle cx="29" cy="146" r="4" class="ink"/><text class="body ink" x="39" y="149" font-size="7">Daehakro/Jongno</text>
    <circle cx="29" cy="159" r="4" class="yellow" stroke="#19120e" stroke-width="1"/><text class="body ink" x="39" y="162" font-size="7">Myeongdong</text>
  </g>
</svg>
